<svg width="25" height="24" viewBox="0 0 25 24" fill="none" xmlns="http://www.w3.org/2000/svg">
<path fill-rule="evenodd" clip-rule="evenodd" d="M22.3747 0H2.35079C1.32254 0 0.485962 0.836531 0.485962 1.86478V13.1387C0.485962 14.167 1.32254 15.0035 2.35079 15.0035H6.96314C7.22307 15.0035 7.43372 14.7928 7.43372 14.5329C7.43372 14.2731 7.22302 14.0623 6.9631 14.0623H3.35079C2.84149 14.0623 2.42716 13.648 2.42716 13.1387V2.86478C2.42716 2.35548 2.84149 1.94116 3.35079 1.94116H21.3747C21.8839 1.94116 22.2983 2.35548 22.2983 2.86478V13.1387C22.2983 13.648 21.8839 14.0623 21.3747 14.0623H20.9615C20.7015 14.0623 20.4909 14.2731 20.4909 14.5329C20.4909 14.7928 20.7016 15.0035 20.9615 15.0035H22.3747C23.4029 15.0035 24.2394 14.167 24.2394 13.1387V1.86478C24.2394 0.836531 23.4029 0 22.3747 0ZM24.4855 17.2895C24.4735 16.9184 24.2408 16.5952 23.8928 16.466V16.466L16.1093 13.5784C15.5822 13.3829 15.0078 13.5083 14.6103 13.9057C14.2128 14.3031 14.0872 14.8775 14.2826 15.4046L17.1629 23.1753C17.2926 23.5251 17.6174 23.7579 17.9904 23.7683L17.9979 23.7685L18.0164 23.7687C18.3789 23.7687 18.7041 23.5565 18.8496 23.2224L19.6463 21.3933L21.3737 23.1211C21.8653 23.6129 22.6654 23.6131 23.1572 23.1214L23.8236 22.4552C24.0618 22.217 24.193 21.9004 24.1931 21.5635C24.1931 21.2266 24.062 20.9099 23.8238 20.6717L22.1183 18.9657L23.9472 18.1493C24.2862 17.998 24.4975 17.6605 24.4855 17.2895ZM21.1102 18.385C20.9687 18.4482 20.8674 18.5769 20.8392 18.7292C20.8111 18.8815 20.8597 19.0379 20.9692 19.1475L23.1582 21.3372C23.2829 21.4619 23.2829 21.6649 23.1582 21.7896L22.4918 22.4558C22.4314 22.5162 22.3511 22.5495 22.2656 22.5495H22.2656C22.1801 22.5495 22.0997 22.5162 22.0393 22.4557L19.8236 20.2394C19.7135 20.1293 19.5562 20.0809 19.4032 20.1097C19.2502 20.1387 19.1215 20.2415 19.0593 20.3842L18.0181 22.7745L15.1651 15.0775C15.0659 14.8098 15.2247 14.6224 15.2758 14.5714C15.3151 14.5321 15.4353 14.4288 15.6108 14.4288C15.6632 14.4288 15.7205 14.438 15.782 14.4608L23.4928 17.3215L21.1102 18.385ZM23.5657 17.3486L23.5654 17.3484L23.7291 16.9072L23.5657 17.3486ZM12.559 11.1864L13.8887 12.5162C14.0725 12.7 14.0725 12.998 13.8887 13.1818C13.7969 13.2736 13.6764 13.3196 13.556 13.3196C13.4355 13.3196 13.3151 13.2736 13.2232 13.1818L11.8934 11.8519C11.7097 11.6681 11.7097 11.3702 11.8935 11.1864C12.0773 11.0027 12.3752 11.0027 12.559 11.1864ZM12.5843 14.0664H10.7036C10.4437 14.0664 10.233 14.2771 10.233 14.537C10.233 14.7969 10.4438 15.0076 10.7036 15.0076H12.5843C12.8441 15.0076 13.0548 14.7969 13.0548 14.537C13.0548 14.2771 12.8441 14.0664 12.5843 14.0664ZM14.814 9.95605C14.814 9.69618 15.0247 9.48548 15.2846 9.48548C15.5445 9.48548 15.7552 9.69618 15.7552 9.95605V11.8367C15.7552 12.0966 15.5445 12.3073 15.2846 12.3073C15.0247 12.3073 14.814 12.0966 14.814 11.8367V9.95605ZM19.2353 10.3597C19.0515 10.176 18.7536 10.1759 18.5698 10.3597L17.24 11.6895C17.0562 11.8733 17.0562 12.1712 17.24 12.355C17.3319 12.4469 17.4523 12.4928 17.5728 12.4928C17.6932 12.4928 17.8137 12.4469 17.9055 12.355L19.2353 11.0252C19.4191 10.8414 19.4191 10.5435 19.2353 10.3597ZM12.6775 16.252C12.8612 16.0683 13.1592 16.0683 13.343 16.252C13.5268 16.4358 13.5268 16.7337 13.343 16.9175L12.0132 18.2473C11.9213 18.3392 11.8009 18.3852 11.6805 18.3852C11.56 18.3852 11.4396 18.3392 11.3477 18.2473C11.1639 18.0636 11.1639 17.7656 11.3477 17.5818L12.6775 16.252ZM8.83018 15.0048C9.09087 15.0048 9.30221 14.7935 9.30221 14.5328C9.30221 14.2721 9.09087 14.0608 8.83018 14.0608C8.56948 14.0608 8.35814 14.2721 8.35814 14.5328C8.35814 14.7935 8.56948 15.0048 8.83018 15.0048ZM9.40974 5.70712C9.40974 6.34518 9.16074 6.76537 8.74833 6.94438C9.22299 7.13113 9.5498 7.43455 9.5498 8.21272V8.37613C9.5498 9.59 8.87283 10.0258 7.99355 10.0258H6.34393C6.07158 10.0258 5.9004 9.87791 5.9004 9.71446V4.65665C5.9004 4.44655 6.11827 4.33762 6.34393 4.33762H7.84571C8.65496 4.33762 9.40974 4.60218 9.40974 5.70712ZM7.76789 5.22468H6.90418V6.54744H7.77568C8.19586 6.54744 8.39818 6.2751 8.39818 5.8783C8.39818 5.47363 8.16474 5.22468 7.76789 5.22468ZM7.7835 9.13869C8.25816 9.13869 8.53829 8.88186 8.53829 8.29049V8.16599C8.53829 7.55905 8.25816 7.34118 7.7835 7.34118H6.90422V9.13869H7.7835ZM13.4793 4.33762C13.2225 4.33762 12.9735 4.43099 12.9735 4.64887V8.29049C12.9735 8.89743 12.6545 9.18533 12.1176 9.18533C11.5807 9.18533 11.2617 8.89743 11.2617 8.29049V4.64887C11.2617 4.43095 11.0049 4.33762 10.7559 4.33762C10.4991 4.33762 10.2501 4.43099 10.2501 4.64887V8.29049C10.2501 9.58996 11.0671 10.0724 12.1176 10.0724C13.1603 10.0724 13.9851 9.58996 13.9851 8.29049V4.64887C13.9851 4.43095 13.7283 4.33762 13.4793 4.33762ZM17.8523 4.53988C17.9224 4.40765 17.9924 4.33762 18.1558 4.33762C18.4282 4.33762 18.825 4.50876 18.825 4.7578C18.825 4.78115 18.825 4.82005 18.8017 4.85896L17.1987 7.64465C17.1832 7.66799 17.1676 7.7069 17.1676 7.7458V9.70668C17.1676 9.91677 16.9186 10.0258 16.6618 10.0258C16.4128 10.0258 16.156 9.91682 16.156 9.70668V7.7458C16.156 7.7069 16.1482 7.66799 16.1327 7.64465L14.522 4.85896C14.5064 4.82005 14.4986 4.78115 14.4986 4.7578C14.4986 4.50876 14.8955 4.33762 15.1678 4.33762C15.3312 4.33762 15.409 4.39987 15.4791 4.53988L16.6618 6.78871L17.8523 4.53988Z" fill="url(#paint0_linear_1_285)"/>
<defs>
<linearGradient id="paint0_linear_1_285" x1="0.485962" y1="0" x2="29.1694" y2="9.25774" gradientUnits="userSpaceOnUse">
<stop stop-color="#D81F5A"/>
<stop offset="1" stop-color="#8438BF"/>
</linearGradient>
</defs>
</svg>
