<svg width="33" height="40" viewBox="0 0 33 40" fill="none" xmlns="http://www.w3.org/2000/svg">
<path d="M32.0513 34.4781L25.3165 22.8129C27.808 20.3974 29.3592 17.0173 29.3592 13.2812C29.3592 5.95796 23.4013 0 16.078 0C8.75464 0 2.79676 5.95796 2.79676 13.2812C2.79676 17.0173 4.348 20.3974 6.83956 22.813L0.104651 34.4781C-0.0533955 34.7519 -0.0308956 35.094 0.16176 35.3447C0.354338 35.5953 0.679103 35.7052 0.984493 35.6231L6.1762 34.2243L7.56073 39.4198C7.64214 39.7254 7.89964 39.9517 8.21315 39.9932C8.24753 39.9977 8.28182 40 8.31589 40C8.59229 40 8.85143 39.8531 8.99221 39.6094L16.078 27.3364L23.1637 39.6093C23.3045 39.8531 23.5637 39.9999 23.8401 39.9999C23.8741 39.9999 23.9084 39.9977 23.9428 39.9931C24.2562 39.9516 24.5138 39.7253 24.5952 39.4198L25.9798 34.2242L31.1715 35.623C31.477 35.7053 31.8016 35.5953 31.9943 35.3446C32.1869 35.094 32.2094 34.7519 32.0513 34.4781ZM4.35925 13.2812C4.35925 6.81952 9.61627 1.5625 16.078 1.5625C22.5397 1.5625 27.7967 6.81952 27.7967 13.2812C27.7967 19.7429 22.5397 25 16.078 25C9.61627 25 4.35925 19.7429 4.35925 13.2812ZM8.58393 37.1915L7.48433 33.065C7.43089 32.8645 7.29979 32.6934 7.12003 32.5896C6.94026 32.4858 6.72667 32.4578 6.52612 32.5118L2.40269 33.6227L8.04495 23.8502C9.94768 25.2999 12.2515 26.2486 14.7585 26.4971L8.58393 37.1915ZM25.6298 32.5117C25.4293 32.4578 25.2157 32.4857 25.0359 32.5895C24.8562 32.6934 24.7251 32.8644 24.6716 33.0649L23.572 37.1914L17.3975 26.4969C19.9045 26.2485 22.2083 25.2997 24.111 23.85L29.7532 33.6227L25.6298 32.5117Z" fill="#219653"/>
<path d="M11.1834 11.6882C11.017 12.2011 11.1534 12.7534 11.5397 13.1297L12.7891 14.3469L12.4946 16.0662C12.4036 16.5976 12.6181 17.1246 13.0544 17.4415C13.3009 17.6205 13.5891 17.7113 13.8794 17.7113C14.103 17.7113 14.3277 17.6573 14.5354 17.5481L16.0791 16.736L17.6232 17.5472C18.1005 17.798 18.668 17.7569 19.1041 17.4398C19.5403 17.1228 19.7545 16.5957 19.6632 16.0643L19.3679 14.3451L20.6166 13.1273C21.0026 12.7508 21.1388 12.1984 20.9721 11.6856C20.8053 11.1729 20.3702 10.8062 19.8366 10.7288L18.1104 10.4784L17.338 8.91445C17.0993 8.43102 16.6162 8.13086 16.0772 8.13086C16.0771 8.13086 16.0769 8.13086 16.0768 8.13086C15.5376 8.13102 15.0545 8.43148 14.8159 8.91508L14.0444 10.4794L12.3184 10.7308C11.7848 10.8086 11.3499 11.1754 11.1834 11.6882ZM14.6761 11.9666C14.9305 11.9295 15.1505 11.7696 15.2642 11.5391L16.0773 9.89031L16.8914 11.5387C17.0053 11.7692 17.2253 11.929 17.4798 11.9659L19.2992 12.2298L17.9831 13.5133C17.799 13.6929 17.7151 13.9515 17.7586 14.2049L18.0698 16.0168L16.4423 15.1617C16.2148 15.0421 15.9428 15.0422 15.7152 15.1619L14.0882 16.0178L14.3985 14.2058C14.4419 13.9523 14.3578 13.6937 14.1737 13.5143L12.8569 12.2314L14.6761 11.9666Z" fill="#219653"/>
<path d="M16.0779 23.1249C21.5058 23.1249 25.9216 18.7091 25.9216 13.2812C25.9216 9.28048 23.5326 5.70814 19.8352 4.18017C19.4362 4.01518 18.9795 4.20502 18.8149 4.60377C18.6501 5.00252 18.8397 5.45939 19.2384 5.62416C22.3491 6.9097 24.3591 9.91532 24.3591 13.2812C24.3591 17.8475 20.6442 21.5624 16.0779 21.5624C11.5116 21.5624 7.79667 17.8475 7.79667 13.2812C7.79667 9.90727 9.81323 6.899 12.9341 5.61728C13.3332 5.45338 13.5239 4.99689 13.36 4.59783C13.196 4.19869 12.7397 4.00807 12.3406 4.17189C8.63105 5.69541 6.23418 9.27095 6.23418 13.2812C6.23418 18.7091 10.6501 23.1249 16.0779 23.1249Z" fill="#219653"/>
<path d="M16.0883 5C16.2938 5 16.4953 4.9164 16.6406 4.77109C16.7859 4.62578 16.8695 4.42422 16.8695 4.21875C16.8695 4.01328 16.7859 3.81172 16.6406 3.66641C16.4953 3.52109 16.2938 3.4375 16.0883 3.4375C15.8828 3.4375 15.6813 3.52109 15.5359 3.66641C15.3898 3.81172 15.307 4.01328 15.307 4.21875C15.307 4.42422 15.3898 4.62578 15.5359 4.77109C15.6813 4.9164 15.8828 5 16.0883 5Z" fill="#219653"/>
</svg>
