<svg width="56" height="70" viewBox="0 0 56 70" fill="none" xmlns="http://www.w3.org/2000/svg">
<path fill-rule="evenodd" clip-rule="evenodd" d="M42.3225 0H3.36575C1.50996 0 0 1.54054 0 3.43422V52.5362C0 54.4299 1.50982 55.9705 3.36575 55.9705H22.8442C23.4374 55.9705 23.9184 55.4798 23.9184 54.8744C23.9184 54.2691 23.4375 53.7783 22.8442 53.7783H3.36575C2.69445 53.7783 2.14829 53.2211 2.14829 52.5361V3.43422C2.14829 2.74926 2.69445 2.192 3.36575 2.192H42.3225C42.9938 2.192 43.5399 2.74926 43.5399 3.43422V39.6764C43.5399 40.2817 44.0208 40.7725 44.6141 40.7725C45.2073 40.7725 45.6883 40.2818 45.6883 39.6764V3.43422C45.6882 1.54054 44.1784 0 42.3225 0ZM14.8236 14.0291C14.2304 14.0291 13.7494 14.5198 13.7494 15.1251C13.7494 16.4547 12.6892 17.5364 11.3861 17.5364C10.0831 17.5364 9.02293 16.4547 9.02293 15.1251C9.02293 13.7956 10.0831 12.7138 11.3861 12.7138C11.9793 12.7138 12.4604 12.2232 12.4604 11.6178C12.4604 11.0124 11.9795 10.5217 11.3861 10.5217C8.89845 10.5217 6.87463 12.5868 6.87463 15.125C6.87463 17.6632 8.89858 19.7283 11.3861 19.7283C13.8737 19.7283 15.8977 17.6632 15.8977 15.125C15.8978 14.5198 15.4168 14.0291 14.8236 14.0291ZM14.8236 26.8892C14.2304 26.8892 13.7494 27.3799 13.7494 27.9852C13.7494 29.3148 12.6892 30.3965 11.3861 30.3965C10.0831 30.3965 9.02293 29.3148 9.02293 27.9852C9.02293 26.6557 10.0831 25.5739 11.3861 25.5739C11.9793 25.5739 12.4604 25.0833 12.4604 24.4779C12.4604 23.8725 11.9795 23.3818 11.3861 23.3818C8.89845 23.3818 6.87463 25.4469 6.87463 27.9851C6.87463 30.5233 8.89858 32.5884 11.3861 32.5884C13.8737 32.5884 15.8977 30.5233 15.8977 27.9851C15.8978 27.38 15.4168 26.8892 14.8236 26.8892ZM19.4067 29.2275H27.4272C28.0205 29.2275 28.5014 29.7181 28.5014 30.3235C28.5014 30.9289 28.0204 31.4196 27.4272 31.4196H19.4067C18.8134 31.4196 18.3325 30.9289 18.3325 30.3235C18.3325 29.7181 18.8136 29.2275 19.4067 29.2275ZM27.4272 24.5509H19.4067C18.8136 24.5509 18.3325 25.0415 18.3325 25.6469C18.3325 26.2523 18.8134 26.743 19.4067 26.743H27.4272C28.0204 26.743 28.5014 26.2523 28.5014 25.6469C28.5014 25.0415 28.0205 24.5509 27.4272 24.5509ZM19.4067 42.0875H25.1357C25.7289 42.0875 26.2099 42.5781 26.2099 43.1835C26.2099 43.7889 25.7289 44.2796 25.1357 44.2796H19.4067C18.8134 44.2796 18.3325 43.7889 18.3325 43.1835C18.3325 42.5781 18.8136 42.0875 19.4067 42.0875ZM27.4272 37.411H19.4067C18.8136 37.411 18.3325 37.9016 18.3325 38.507C18.3325 39.1124 18.8134 39.6031 19.4067 39.6031H27.4272C28.0204 39.6031 28.5014 39.1124 28.5014 38.507C28.5014 37.9016 28.0205 37.411 27.4272 37.411ZM19.4067 16.3674H37.7394C38.3326 16.3674 38.8135 16.858 38.8135 17.4634C38.8135 18.0688 38.3324 18.5595 37.7393 18.5595H19.4067C18.8134 18.5595 18.3325 18.0688 18.3325 17.4634C18.3325 16.858 18.8136 16.3674 19.4067 16.3674ZM33.1562 11.6908H19.4067C18.8136 11.6908 18.3325 12.1815 18.3325 12.7869C18.3325 13.3923 18.8134 13.883 19.4067 13.883H33.1562C33.7494 13.883 34.2304 13.3923 34.2304 12.7869C34.2304 12.1815 33.7495 11.6908 33.1562 11.6908ZM13.7494 40.8454C13.7494 40.24 14.2304 39.7493 14.8236 39.7493C15.4168 39.7493 15.8978 40.24 15.8977 40.8452C15.8977 43.3834 13.8737 45.4485 11.3861 45.4485C8.89858 45.4485 6.87463 43.3834 6.87463 40.8452C6.87463 38.307 8.89845 36.2419 11.3861 36.2419C11.9795 36.2419 12.4604 36.7326 12.4604 37.338C12.4604 37.9434 11.9793 38.4341 11.3861 38.4341C10.0831 38.4341 9.02293 39.5158 9.02293 40.8454C9.02293 42.1749 10.0831 43.2567 11.3861 43.2567C12.6892 43.2567 13.7494 42.1749 13.7494 40.8454ZM49.6779 45.2453C50.4676 44.6335 51.4655 44.3447 52.4638 44.4463C54.4468 44.6489 56 46.4784 55.9999 48.6116V60.7203C55.9999 65.8372 51.92 70 46.9052 70H37.2166C32.9755 70 29.3351 67.0581 28.3638 62.8457L25.9665 52.4501C25.4229 50.0931 26.1002 47.6638 27.7782 45.9517L30.9359 42.7298V28.7367C30.9359 26.6038 32.4891 24.7744 34.4721 24.5718C35.5835 24.4583 36.6931 24.8293 37.5165 25.5895C38.3407 26.3503 38.8131 27.4367 38.8131 28.5699V42.5278C39.4821 42.1804 40.2435 42.0305 41.0059 42.1082C42.2471 42.235 43.3198 42.9992 43.9489 44.0762C44.7385 43.4646 45.7362 43.1758 46.7349 43.2772C47.976 43.4041 49.0488 44.1682 49.6779 45.2453ZM46.9053 67.8076C50.7355 67.8076 53.8516 64.6281 53.8516 60.72H53.8523V48.6109C53.8523 47.5903 53.1485 46.7188 52.2503 46.6272C51.734 46.5741 51.241 46.7387 50.8613 47.0891C50.4864 47.4351 50.2716 47.9291 50.2716 48.4442V50.1979C50.2716 50.8033 49.7906 51.294 49.1974 51.294C48.6041 51.294 48.1232 50.8032 48.1232 50.1979V47.442C48.1232 46.4214 47.4194 45.5499 46.5212 45.4582C46.0053 45.4053 45.5119 45.5696 45.1322 45.9201C44.7573 46.2662 44.5425 46.7601 44.5425 47.2753V49.029C44.5425 49.6344 44.0615 50.125 43.4683 50.125C42.875 50.125 42.3941 49.6342 42.3941 49.029V46.2731C42.3941 45.2525 41.6903 44.3811 40.7921 44.2894C40.2761 44.2363 39.7828 44.4008 39.4031 44.7513C39.0282 45.0974 38.8134 45.5913 38.8134 46.1065V47.8602C38.8134 48.4656 38.3325 48.9562 37.7392 48.9562C37.1459 48.9562 36.665 48.4654 36.665 47.8602V28.5701C36.665 28.0549 36.45 27.561 36.0753 27.2149C35.6958 26.8644 35.2023 26.7 34.6863 26.753C33.7879 26.8446 33.0843 27.716 33.0843 28.7366V49.6136C33.0843 50.219 32.6034 50.7097 32.0101 50.7097C31.4168 50.7097 30.9359 50.2188 30.9359 49.6136V45.8295L29.2973 47.5014C28.1492 48.6728 27.6858 50.335 28.0577 51.9476L30.455 62.3433C31.1969 65.5607 33.9775 67.8076 37.2167 67.8076H46.9053Z" fill="url(#paint0_linear_1_425)"/>
<defs>
<linearGradient id="paint0_linear_1_425" x1="0" y1="0" x2="69.3642" y2="17.7375" gradientUnits="userSpaceOnUse">
<stop stop-color="#D81F5A"/>
<stop offset="1" stop-color="#8438BF"/>
</linearGradient>
</defs>
</svg>
