<svg width="24" height="16" viewBox="0 0 24 16" fill="none" xmlns="http://www.w3.org/2000/svg">
<path d="M23.8021 7.98976L19.7685 3.8882C19.6361 3.75349 19.4538 3.67747 19.2633 3.67747H16.6858V0.691982C16.6858 0.309823 16.371 0 15.9827 0H2.92308C2.53477 0 2.21995 0.309823 2.21995 0.691982V2.76857H1.68773C1.29942 2.76857 0.984609 3.0784 0.984609 3.46055C0.984609 3.84271 1.29942 4.15254 1.68773 4.15254H2.21995V5.53715H0.703125C0.314812 5.53715 0 5.84697 0 6.22913C0 6.61129 0.314812 6.92111 0.703125 6.92111H2.21995V13.2761C2.21995 13.6583 2.53477 13.9681 2.92308 13.9681H4.41975C4.55606 14.4147 4.80323 14.8239 5.14767 15.1628C5.6962 15.7027 6.42553 16 7.20127 16C7.977 16 8.70628 15.7027 9.25486 15.1628C9.60342 14.8198 9.84427 14.4104 9.97823 13.9757H16.6928C16.8268 14.4104 17.0677 14.8198 17.4162 15.1628C17.9648 15.7027 18.6941 16 19.4698 16C20.2455 16 20.9748 15.7027 21.5234 15.1628C21.872 14.8198 22.1128 14.4104 22.2468 13.9757H23.2969C23.6852 13.9757 24 13.6659 24 13.2837V8.47101C24 8.29137 23.929 8.11884 23.8021 7.98976ZM21.6379 7.77903H16.6661V5.06143H18.9653L21.6379 7.77903ZM3.6262 6.92106H7.28588C7.67419 6.92106 7.989 6.61124 7.989 6.22908C7.989 5.84692 7.67419 5.5371 7.28588 5.5371H3.6262V4.15249H7.80164C8.18995 4.15249 8.50477 3.84267 8.50477 3.46051C8.50477 3.07835 8.18995 2.76853 7.80164 2.76853H3.6262V1.38392H7.80164H15.2795L15.2598 12.5917H10.0502C9.94355 12.0523 9.67847 11.5375 9.25486 11.1206C8.70633 10.5807 7.977 10.2834 7.20127 10.2834C6.42553 10.2834 5.69625 10.5807 5.14767 11.1206C4.73517 11.5265 4.46213 12.0331 4.35202 12.5841H3.6262V6.92106ZM8.2605 14.1842C7.97756 14.4627 7.60134 14.616 7.20127 14.616C6.80119 14.616 6.42497 14.4627 6.14203 14.1842C5.85909 13.9058 5.70328 13.5355 5.70328 13.1417C5.70328 12.7479 5.85909 12.3777 6.14203 12.0992C6.42497 11.8208 6.80119 11.6674 7.20127 11.6674C7.60134 11.6674 7.97756 11.8208 8.2605 12.0992C8.84456 12.6741 8.84456 13.6094 8.2605 14.1842ZM20.529 14.1842C20.246 14.4627 19.8698 14.616 19.4697 14.616C19.0696 14.616 18.6934 14.4627 18.4105 14.1842C17.8264 13.6094 17.8264 12.6741 18.4105 12.0993C18.6934 11.8208 19.0696 11.6675 19.4697 11.6675C19.8698 11.6675 20.246 11.8208 20.529 12.0993C20.8119 12.3777 20.9677 12.748 20.9677 13.1418C20.9677 13.5355 20.8119 13.9058 20.529 14.1842ZM22.3187 12.5917C22.212 12.0523 21.947 11.5375 21.5233 11.1206C20.9748 10.5807 20.2455 10.2834 19.4697 10.2834C18.694 10.2834 17.9647 10.5807 17.4161 11.1206C17.0426 11.4882 16.7931 11.932 16.666 12.4016V9.16299H22.5938V12.5917H22.3187Z" fill="url(#paint0_linear_1_332)"/>
<defs>
<linearGradient id="paint0_linear_1_332" x1="0" y1="0" x2="25.7515" y2="12.347" gradientUnits="userSpaceOnUse">
<stop stop-color="#D81F5A"/>
<stop offset="1" stop-color="#8438BF"/>
</linearGradient>
</defs>
</svg>
