<svg width="74" height="70" viewBox="0 0 74 70" fill="none" xmlns="http://www.w3.org/2000/svg">
<path fill-rule="evenodd" clip-rule="evenodd" d="M62.479 1.89084C62.7126 1.33832 63.3509 1.07871 63.9051 1.31236C77.4608 7.05316 77.2571 26.3265 63.7251 31.8647V66.1425C63.7251 67.2639 62.8125 68.1765 61.6911 68.1765C17.3637 68.1765 16.4344 68.2939 15.6164 68.0452C15.5356 68.0206 15.4559 67.9925 15.3357 67.9604C15.0078 69.1354 13.9287 70 12.6504 70H8.45319C7.00783 70 5.66349 68.8769 5.66349 67.0986H2.96522C1.33023 67.0986 0 65.7683 0 64.1333V56.3196C0 55.7174 0.485925 55.2315 1.08811 55.2315C1.68861 55.2315 2.17622 55.7174 2.17622 56.3196V64.1333C2.17622 64.5685 2.53009 64.9223 2.96522 64.9223H5.66349V49.8598H2.96522C2.53009 49.8598 2.17622 50.2136 2.17622 50.6499V51.9677C2.17622 52.5682 1.68861 53.0552 1.08811 53.0552C0.485925 53.0552 0 52.5682 0 51.9677V50.6499C0 49.0138 1.33023 47.6835 2.96522 47.6835H5.66349C5.66349 45.9063 7.00557 44.7832 8.45319 44.7832H12.6504C14.1223 44.7832 15.439 45.9481 15.439 47.6271C16.2049 47.3365 16.8505 46.7681 17.2377 46.0062L19.2818 41.989V27.9113C19.2818 26.896 20.1069 26.0692 21.1239 26.0692H43.928C35.7333 14.4899 45.1595 -1.57046 59.4161 0.123787C60.0127 0.194898 60.4393 0.736132 60.3682 1.33267C60.2971 1.93035 59.7559 2.35363 59.1593 2.28534C54.913 1.78192 50.5363 3.15447 47.2996 6.39285C41.8223 11.8701 41.7659 20.5078 46.7008 26.0692C55.4294 35.9875 71.8216 29.7139 71.8216 16.5493C71.8216 10.4738 68.0905 5.44188 63.0563 3.31701C62.5032 3.08336 62.2436 2.44506 62.479 1.89084ZM13.2628 58.8536V57.3281V47.5735C13.2628 47.2394 12.9828 46.9594 12.6504 46.9594H8.45319C8.12133 46.9594 7.83971 47.2394 7.83971 47.5735V67.2103C7.83971 67.5427 8.12133 67.8243 8.45319 67.8243H12.6504C12.9828 67.8243 13.2628 67.5427 13.2628 67.2103V58.8536ZM41.4431 28.2448H33.1457V36.7827L36.3705 34.2594C36.91 33.8366 37.6742 33.8344 38.2177 34.2594L41.4431 36.7827V28.2448ZM15.713 65.8144C16.4766 66.0883 17.37 66.0002 32.8956 65.9946C33.9442 65.9946 34.468 64.7186 33.7309 63.9793C33.3601 63.6107 33.2676 63.6112 30.5892 63.6261C29.921 63.6298 29.0918 63.6344 28.0573 63.6344C27.4562 63.6344 26.9692 63.1474 26.9692 62.5463C26.9692 61.9453 27.4562 61.4582 28.0573 61.4582C30.6156 61.4582 31.624 61.4583 32.6324 61.458C33.9431 61.4576 35.2538 61.4566 39.9678 61.4537C40.2827 61.4537 40.5785 61.3318 40.8008 61.1083C41.5193 60.3944 41.0576 59.1319 40.013 59.0935C40.0067 59.0929 29.1087 59.0929 29.1025 59.0929C28.5014 59.0929 28.0144 58.6059 28.0144 58.0054C28.0144 57.4043 28.5014 56.9173 29.1025 56.9173C40.2957 56.9173 41.9798 56.9161 41.9832 56.9161C42.7981 56.9161 43.2609 56.3382 43.1029 55.5492C43.0143 55.0605 42.4426 54.557 41.8946 54.557L29.1939 54.5582C28.5929 54.5582 28.1058 54.0711 28.1058 53.4701C28.1058 52.869 28.5929 52.382 29.1939 52.382H37.6996C38.3407 52.3786 38.8678 51.8565 38.8752 51.2177C38.8825 50.5737 38.3063 50.0206 37.6319 50.0206L24.0011 50.0251C22.4395 50.0251 21.4304 48.3789 22.1381 46.9871L23.1884 44.9226C24.149 43.0365 22.1116 41.2147 21.751 41.9354C21.4118 42.6014 20.2501 44.8841 19.6386 46.0857L19.2818 46.7868C18.3771 48.5595 17.0458 49.5398 15.439 49.8942V65.7074C15.5425 65.7481 15.6269 65.7835 15.713 65.8144ZM55.308 66.0003H61.5489V32.5815C59.5132 33.0973 57.3787 33.2192 55.308 32.9511V40.7288C55.308 41.3293 54.8204 41.8169 54.2199 41.8169C53.6177 41.8169 53.1318 41.3293 53.1318 40.7288V32.5188C50.3709 31.7778 47.8397 30.3212 45.7634 28.2448H43.6193V38.1722C43.6193 38.999 42.946 39.6717 42.1181 39.6717C41.5694 39.6717 41.5195 39.6322 39.3483 37.9165C38.8083 37.4898 38.1371 36.9594 37.2944 36.3001C36.4815 36.9359 35.8275 37.4518 35.2968 37.8705C33.0272 39.6609 33.0135 39.6717 32.4701 39.6717C31.6427 39.6717 30.9694 38.999 30.9694 38.1722V28.2448H21.458V39.6548C23.9238 39.0684 26.7829 42.6567 25.1282 45.9108L24.1416 47.8489L37.6319 47.8444C39.9791 47.8444 41.6762 50.1657 40.8352 52.3808C40.9423 52.3808 41.0499 52.3796 41.1579 52.3783C42.1806 52.3662 43.2411 52.3536 44.3039 53.4165C46.0512 55.1705 45.4631 58.1871 43.0448 58.9355C44.0059 61.1506 42.3839 63.6299 39.9678 63.6299L36.0448 63.6327C36.3276 64.3783 36.3321 65.2096 36.0307 66.0003L53.1318 66C54 65.9925 54.2199 65.9925 54.2199 65.9925L55.308 66.0003ZM48.7394 16.2587C49.1887 15.8602 49.8766 15.9014 50.2751 16.3518L54.6174 21.2534L64.6412 10.0043C65.0413 9.5556 65.7288 9.51666 66.1774 9.91623C66.6261 10.3158 66.6662 11.0038 66.266 11.4519L56.2021 22.7467C55.359 23.6932 53.873 23.6948 53.0287 22.7422L48.6463 17.7943C48.2478 17.3445 48.289 16.6571 48.7394 16.2587Z" fill="url(#paint0_linear_1_493)"/>
<defs>
<linearGradient id="paint0_linear_1_493" x1="0" y1="0" x2="87.6211" y2="29.5974" gradientUnits="userSpaceOnUse">
<stop stop-color="#D81F5A"/>
<stop offset="1" stop-color="#8438BF"/>
</linearGradient>
</defs>
</svg>
