<svg width="24" height="24" viewBox="0 0 24 24" fill="none" xmlns="http://www.w3.org/2000/svg">
<path d="M23.7003 4.89356L19.013 0.205969C18.8812 0.0740625 18.7023 0 18.5158 0H7.73438C6.57127 0 5.625 0.946266 5.625 2.10938V11.383C2.46534 11.7339 0 14.4202 0 17.6719C0 21.1612 2.8388 24 6.32812 24H21.7969C22.96 24 23.9062 23.0537 23.9062 21.8906V5.39077C23.9062 5.20425 23.8322 5.02547 23.7003 4.89356ZM19.2188 2.40061L21.5056 4.6875H19.2188V2.40061ZM1.40625 17.6719C1.40625 14.958 3.6142 12.75 6.32812 12.75C9.04205 12.75 11.25 14.958 11.25 17.6719C11.25 20.3858 9.04205 22.5938 6.32812 22.5938C3.6142 22.5938 1.40625 20.3858 1.40625 17.6719ZM21.7969 22.5938H10.3007C11.5646 21.5716 12.4283 20.0738 12.617 18.375H19.9219C20.3102 18.375 20.625 18.0602 20.625 17.6719C20.625 17.2836 20.3102 16.9688 19.9219 16.9688H12.617C12.5023 15.9366 12.1387 14.9785 11.5872 14.1562H19.9219C20.3102 14.1562 20.625 13.8414 20.625 13.4531C20.625 13.0648 20.3102 12.75 19.9219 12.75H10.3007C9.38569 12.01 8.26116 11.5196 7.03125 11.383V2.10938C7.03125 1.72167 7.34667 1.40625 7.73438 1.40625H17.8125V5.39062C17.8125 5.77894 18.1273 6.09375 18.5156 6.09375H22.5V21.8906C22.5 22.2783 22.1846 22.5938 21.7969 22.5938Z" fill="#4F4F4F"/>
<path d="M19.9219 8.53125H9.60938C9.22106 8.53125 8.90625 8.84606 8.90625 9.23438C8.90625 9.62269 9.22106 9.9375 9.60938 9.9375H19.9219C20.3102 9.9375 20.625 9.62269 20.625 9.23438C20.625 8.84606 20.3102 8.53125 19.9219 8.53125Z" fill="#4F4F4F"/>
<path d="M9.12216 15.9091C8.84761 15.6345 8.40239 15.6345 8.1278 15.9091L5.34375 18.6931L4.43466 17.784C4.16011 17.5095 3.71489 17.5095 3.4403 17.784C3.1657 18.0586 3.1657 18.5038 3.4403 18.7784L4.84655 20.1847C4.98384 20.322 5.1638 20.3906 5.34375 20.3906C5.5237 20.3906 5.70366 20.322 5.84091 20.1847L9.12216 16.9034C9.39675 16.6289 9.39675 16.1836 9.12216 15.9091Z" fill="#4F4F4F"/>
</svg>
