<svg width="70" height="70" viewBox="0 0 70 70" fill="none" xmlns="http://www.w3.org/2000/svg">
<path d="M3.5507 19.7283H16.178C18.1357 19.7283 19.7286 18.1356 19.7286 16.1778V3.55058C19.7285 1.59277 18.1357 0 16.178 0H4.18897C3.62255 0 3.16358 0.459101 3.16358 1.02539C3.16358 1.59168 3.62255 2.05078 4.18897 2.05078H16.178C17.005 2.05078 17.6778 2.72357 17.6778 3.55058V16.1779C17.6778 17.0049 17.005 17.6777 16.178 17.6777H3.5507C2.72369 17.6777 2.0509 17.0049 2.0509 16.1779V3.55058C2.0509 2.72357 2.72369 2.05078 3.5507 2.05078H4.40382C4.40382 2.05078 4.5 1.56629 4.5 1C4.5 0.433712 4.40382 0 4.40382 0H3.5507C1.59289 0 0.00012207 1.59277 0.00012207 3.55058V16.1779C0.00012207 18.1356 1.59289 19.7283 3.5507 19.7283Z" fill="url(#paint0_linear_1_466)"/>
<path d="M9.32565 14.162C8.89365 14.162 8.48565 14.078 8.10165 13.91C7.71765 13.742 7.38365 13.504 7.09965 13.196C6.81965 12.888 6.61765 12.524 6.49365 12.104L7.89165 11.726C7.99165 12.07 8.17365 12.336 8.43765 12.524C8.70565 12.708 8.99965 12.798 9.31965 12.794C9.60365 12.794 9.85765 12.728 10.0817 12.596C10.3057 12.464 10.4817 12.286 10.6097 12.062C10.7377 11.834 10.8017 11.58 10.8017 11.3C10.8017 10.872 10.6637 10.514 10.3877 10.226C10.1117 9.93802 9.75565 9.79402 9.31965 9.79402C9.18765 9.79402 9.05765 9.81202 8.92965 9.84802C8.80565 9.88402 8.68565 9.93402 8.56965 9.99802L7.90965 8.85802L10.8137 6.37402L10.9397 6.72202H6.82965V5.36002H12.1277V6.72802L9.79365 8.97202L9.78165 8.54602C10.3057 8.58202 10.7517 8.72802 11.1197 8.98402C11.4917 9.24002 11.7757 9.57002 11.9717 9.97402C12.1717 10.378 12.2717 10.82 12.2717 11.3C12.2717 11.844 12.1377 12.332 11.8697 12.764C11.6057 13.196 11.2497 13.538 10.8017 13.79C10.3577 14.038 9.86565 14.162 9.32565 14.162Z" fill="url(#paint1_linear_1_466)"/>
<path d="M48.6014 14.18C48.0374 14.18 47.5294 14.048 47.0774 13.784C46.6294 13.516 46.2734 13.146 46.0094 12.674C45.7454 12.202 45.6134 11.66 45.6134 11.048V8.42002C45.6134 7.76402 45.7434 7.19402 46.0034 6.71002C46.2674 6.22602 46.6354 5.85202 47.1074 5.58802C47.5834 5.32402 48.1354 5.19202 48.7634 5.19202C49.1994 5.19202 49.6134 5.26602 50.0054 5.41402C50.3974 5.55802 50.7454 5.79002 51.0494 6.11002L50.0054 7.12402C49.8534 6.94402 49.6674 6.80202 49.4474 6.69802C49.2314 6.59402 49.0034 6.54202 48.7634 6.54202C48.4274 6.54202 48.1334 6.62202 47.8814 6.78202C47.6294 6.93802 47.4334 7.14402 47.2934 7.40002C47.1574 7.65602 47.0894 7.93002 47.0894 8.22202V9.65602L46.8254 9.36802C47.0734 9.08002 47.3714 8.85602 47.7194 8.69602C48.0674 8.53202 48.4314 8.45002 48.8114 8.45002C49.3554 8.45002 49.8354 8.57402 50.2514 8.82202C50.6674 9.06602 50.9954 9.40202 51.2354 9.83002C51.4754 10.254 51.5954 10.738 51.5954 11.282C51.5954 11.822 51.4574 12.312 51.1814 12.752C50.9094 13.188 50.5474 13.536 50.0954 13.796C49.6434 14.052 49.1454 14.18 48.6014 14.18ZM48.6014 12.794C48.8814 12.794 49.1374 12.728 49.3694 12.596C49.6014 12.46 49.7854 12.278 49.9214 12.05C50.0614 11.818 50.1314 11.562 50.1314 11.282C50.1314 11.002 50.0634 10.746 49.9274 10.514C49.7914 10.282 49.6074 10.098 49.3754 9.96202C49.1474 9.82202 48.8934 9.75202 48.6134 9.75202C48.3334 9.75202 48.0774 9.82202 47.8454 9.96202C47.6134 10.098 47.4294 10.282 47.2934 10.514C47.1574 10.746 47.0894 11.002 47.0894 11.282C47.0894 11.554 47.1554 11.806 47.2874 12.038C47.4234 12.266 47.6054 12.45 47.8334 12.59C48.0654 12.726 48.3214 12.794 48.6014 12.794Z" fill="url(#paint2_linear_1_466)"/>
<path d="M44.6349 36V28.938L43.0149 29.928V28.332L44.6349 27.36H46.1109V36H44.6349Z" fill="url(#paint3_linear_1_466)"/>
<path d="M48.1566 35.988V34.728L51.8526 31.434C52.1406 31.178 52.3406 30.936 52.4526 30.708C52.5646 30.48 52.6206 30.26 52.6206 30.048C52.6206 29.76 52.5586 29.504 52.4346 29.28C52.3106 29.052 52.1386 28.872 51.9186 28.74C51.7026 28.608 51.4526 28.542 51.1686 28.542C50.8686 28.542 50.6026 28.612 50.3706 28.752C50.1426 28.888 49.9646 29.07 49.8366 29.298C49.7086 29.526 49.6486 29.772 49.6566 30.036H48.1686C48.1686 29.46 48.2966 28.958 48.5526 28.53C48.8126 28.102 49.1686 27.77 49.6206 27.534C50.0766 27.298 50.6026 27.18 51.1986 27.18C51.7506 27.18 52.2466 27.304 52.6866 27.552C53.1266 27.796 53.4726 28.136 53.7246 28.572C53.9766 29.004 54.1026 29.502 54.1026 30.066C54.1026 30.478 54.0466 30.824 53.9346 31.104C53.8226 31.384 53.6546 31.642 53.4306 31.878C53.2106 32.114 52.9366 32.376 52.6086 32.664L49.9866 34.986L49.8546 34.626H54.1026V35.988H48.1566Z" fill="url(#paint4_linear_1_466)"/>
<path d="M23.1227 6.47021H30.5805C31.147 6.47021 31.6059 6.01111 31.6059 5.44482C31.6059 4.87853 31.147 4.41943 30.5805 4.41943H23.1227C22.5563 4.41943 22.0973 4.87853 22.0973 5.44482C22.0973 6.01111 22.5564 6.47021 23.1227 6.47021Z" fill="url(#paint5_linear_1_466)"/>
<path d="M23.1227 10.8896H27.8184C28.3848 10.8896 28.8438 10.4305 28.8438 9.86426C28.8438 9.29797 28.3848 8.83887 27.8184 8.83887H23.1227C22.5563 8.83887 22.0973 9.29797 22.0973 9.86426C22.0973 10.4305 22.5564 10.8896 23.1227 10.8896Z" fill="url(#paint6_linear_1_466)"/>
<path d="M23.1227 15.309H27.8184C28.3848 15.309 28.8438 14.8499 28.8438 14.2837C28.8438 13.7174 28.3848 13.2583 27.8184 13.2583H23.1227C22.5563 13.2583 22.0973 13.7174 22.0973 14.2837C22.0973 14.8499 22.5564 15.309 23.1227 15.309Z" fill="url(#paint7_linear_1_466)"/>
<path d="M23.1227 28.5673H30.5805C31.147 28.5673 31.6059 28.1082 31.6059 27.5419C31.6059 26.9756 31.147 26.5165 30.5805 26.5165H23.1227C22.5563 26.5165 22.0973 26.9756 22.0973 27.5419C22.0973 28.1082 22.5564 28.5673 23.1227 28.5673Z" fill="url(#paint8_linear_1_466)"/>
<path d="M23.1227 32.9868H27.8184C28.3848 32.9868 28.8438 32.5277 28.8438 31.9614C28.8438 31.3951 28.3848 30.936 27.8184 30.936H23.1227C22.5563 30.936 22.0973 31.3951 22.0973 31.9614C22.0973 32.5277 22.5564 32.9868 23.1227 32.9868Z" fill="url(#paint9_linear_1_466)"/>
<path d="M23.1227 37.4063H27.8184C28.3848 37.4063 28.8438 36.9472 28.8438 36.3809C28.8438 35.8146 28.3848 35.3555 27.8184 35.3555H23.1227C22.5563 35.3555 22.0973 35.8146 22.0973 36.3809C22.0973 36.9472 22.5564 37.4063 23.1227 37.4063Z" fill="url(#paint10_linear_1_466)"/>
<path d="M41.9448 19.7285H54.5717C56.5297 19.7285 58.1226 18.1356 58.1226 16.1776V3.55085C58.1225 1.59291 56.5297 0 54.5717 0H41.9448C39.9869 0 38.394 1.59291 38.394 3.55085V16.1778C38.394 18.1356 39.9868 19.7285 41.9448 19.7285ZM40.4448 3.55085C40.4448 2.72371 41.1177 2.05078 41.9448 2.05078H54.5717C55.3989 2.05078 56.0718 2.72371 56.0718 3.55085V16.1778C56.0718 17.0049 55.3989 17.6778 54.5717 17.6778H41.9448C41.1177 17.6778 40.4448 17.0049 40.4448 16.1778V3.55085Z" fill="url(#paint11_linear_1_466)"/>
<path d="M54.5712 22.0977H43.2589C42.6925 22.0977 42.2335 22.5568 42.2335 23.1231C42.2335 23.6894 42.6925 24.1485 43.2589 24.1485H54.5712C55.3989 24.1485 56.0722 24.8213 56.0722 25.6483V38.2756C56.0722 39.1026 55.3987 39.7754 54.5712 39.7754H41.9452C41.1182 39.7754 40.4454 39.1026 40.4454 38.2756V25.6483C40.4454 24.8213 41.1182 24.1485 41.9452 24.1485H43.4739C44.0403 24.1485 44.4993 23.6894 44.4993 23.1231C44.4993 22.5568 44.0403 22.0977 43.4739 22.0977H41.9452C39.9876 22.0977 38.3947 23.6905 38.3947 25.6483V38.2756C38.3947 40.2334 39.9874 41.8262 41.9452 41.8262H54.5712C56.5297 41.8262 58.123 40.2334 58.123 38.2756V25.6483C58.123 23.6906 56.5297 22.0977 54.5712 22.0977Z" fill="url(#paint12_linear_1_466)"/>
<path d="M61.5165 6.47021H68.9743C69.5408 6.47021 69.9997 6.01111 69.9997 5.44482C69.9997 4.87853 69.5408 4.41943 68.9743 4.41943H61.5165C60.9501 4.41943 60.4911 4.87853 60.4911 5.44482C60.4911 6.01111 60.9502 6.47021 61.5165 6.47021Z" fill="url(#paint13_linear_1_466)"/>
<path d="M61.5165 10.8896H66.2122C66.7786 10.8896 67.2376 10.4305 67.2376 9.86426C67.2376 9.29797 66.7786 8.83887 66.2122 8.83887H61.5165C60.9501 8.83887 60.4911 9.29797 60.4911 9.86426C60.4911 10.4305 60.9502 10.8896 61.5165 10.8896Z" fill="url(#paint14_linear_1_466)"/>
<path d="M61.5165 15.309H66.2122C66.7786 15.309 67.2376 14.8499 67.2376 14.2837C67.2376 13.7174 66.7786 13.2583 66.2122 13.2583H61.5165C60.9501 13.2583 60.4911 13.7174 60.4911 14.2837C60.4911 14.8499 60.9502 15.309 61.5165 15.309Z" fill="url(#paint15_linear_1_466)"/>
<path d="M68.9743 26.5165H61.5165C60.9501 26.5165 60.4911 26.9756 60.4911 27.5419C60.4911 28.1082 60.9501 28.5673 61.5165 28.5673H68.9743C69.5408 28.5673 69.9997 28.1082 69.9997 27.5419C69.9997 26.9756 69.5408 26.5165 68.9743 26.5165Z" fill="url(#paint16_linear_1_466)"/>
<path d="M66.2122 30.936H61.5165C60.9501 30.936 60.4911 31.3951 60.4911 31.9614C60.4911 32.5277 60.9501 32.9868 61.5165 32.9868H66.2122C66.7786 32.9868 67.2376 32.5277 67.2376 31.9614C67.2376 31.3951 66.7786 30.936 66.2122 30.936Z" fill="url(#paint17_linear_1_466)"/>
<path d="M66.2122 35.3555H61.5165C60.9501 35.3555 60.4911 35.8146 60.4911 36.3809C60.4911 36.9472 60.9501 37.4063 61.5165 37.4063H66.2122C66.7786 37.4063 67.2376 36.9472 67.2376 36.3809C67.2376 35.8145 66.7786 35.3555 66.2122 35.3555Z" fill="url(#paint18_linear_1_466)"/>
<path d="M35.4642 48.8501L33.833 43.5717C33.2279 41.6114 31.1532 40.4445 29.2088 40.9702C28.5563 41.1465 27.9775 41.4834 27.515 41.9477C26.7415 40.2583 24.8847 39.3403 23.0744 39.8298C22.4142 40.0082 21.8298 40.3507 21.3647 40.8231C20.981 40.0509 20.3659 39.4508 19.6352 39.0865C19.6968 38.823 19.7285 38.5513 19.7285 38.2753V25.648C19.7285 23.6902 18.1357 22.0974 16.1779 22.0974H3.55058C1.59291 22.0974 0 23.6902 0 25.648V38.2753C0 40.2331 1.59277 41.8259 3.55058 41.8259H8.02059L10.1969 48.8709C9.60912 48.7653 9.00018 48.8011 8.41297 48.9823C6.81542 49.4761 5.74218 50.9302 5.74218 52.6007C5.74218 52.975 5.79919 53.3509 5.91225 53.7194L9.44547 65.157C9.86807 66.5198 10.7016 67.6839 11.8573 68.5246L13.6224 69.8042C13.8042 69.936 14.0147 69.9995 14.2234 69.9995C14.5407 69.9995 14.8538 69.8525 15.0543 69.5759C15.3867 69.1175 15.2846 68.4763 14.826 68.1438L13.0624 66.8651C12.2682 66.2874 11.6949 65.4868 11.4045 64.5507L7.87225 53.1162C7.58077 52.2136 8.10809 51.21 9.01822 50.9419C9.90375 50.6481 10.935 51.1908 11.1905 52.0885L13.1443 58.4123L12.5219 59.5911C12.2574 60.0919 12.449 60.7122 12.9498 60.9766C13.1026 61.0573 13.2662 61.0954 13.4277 61.0954C13.7957 61.0954 14.1516 60.8966 14.3355 60.5487L15.1562 58.9942C15.2832 58.7537 15.3093 58.4726 15.2291 58.2127L8.25862 35.6483C7.68084 33.3823 10.8198 32.463 11.5958 34.6859L16.8764 51.7776C17.3266 53.0651 19.1924 52.4769 18.8358 51.1722L16.3083 42.9911C16.3075 42.9887 16.3064 42.9864 16.3057 42.9839C16.1681 42.5315 16.2178 42.0543 16.4466 41.6394C16.676 41.2231 17.0559 40.9252 17.5153 40.8011C18.4061 40.5611 19.3626 41.1121 19.646 42.0311L22.1545 50.147C22.6048 51.4345 24.4706 50.8463 24.114 49.5416C24.114 49.5416 22.4031 44.0023 22.4023 43.9993C22.2617 43.5446 22.3107 43.0647 22.5402 42.6481C22.7695 42.2321 23.1493 41.9343 23.6098 41.8099C24.5013 41.5694 25.4567 42.1204 25.7407 43.0378L27.4328 48.5163C27.8147 49.7982 29.8019 49.1723 29.3923 47.911L28.5327 45.1285C28.3968 44.6774 28.4467 44.2021 28.6747 43.7885C28.9042 43.3722 29.284 43.0744 29.7442 42.95C30.6359 42.7085 31.5906 43.2594 31.8739 44.1769L33.5051 49.4556C33.6723 49.9966 34.2458 50.3002 34.7875 50.1325C35.3283 49.9653 35.6314 49.3912 35.4642 48.8501ZM9.73436 30.5843C9.55047 30.5843 9.20854 30.5853 8.83283 30.5867H8.19231V28.5673H9.73436C10.2904 28.5673 10.7428 29.0197 10.7428 29.5758C10.7428 30.1319 10.2904 30.5843 9.73436 30.5843ZM15.3133 39.7725L13.5819 34.1669C13.582 34.1642 13.5826 34.1615 13.5827 34.1587C13.5856 34.1031 13.5871 34.047 13.5871 33.9907C13.5871 32.8957 13.067 31.9206 12.2615 31.2975C12.597 30.8067 12.7936 30.2137 12.7936 29.5756C12.7936 27.8888 11.4212 26.5164 9.73436 26.5164H7.16692C6.60049 26.5164 6.14153 26.9755 6.14153 27.5418V36.3805C6.14153 36.6542 6.25104 36.9166 6.44559 37.1092C6.49413 37.1572 6.5469 37.1999 6.60309 37.2368L7.38731 39.7753H3.55072C2.72371 39.7753 2.05091 39.1025 2.05091 38.2754V25.6481C2.05091 24.8211 2.72371 24.1483 3.55072 24.1483H16.178C17.005 24.1483 17.6778 24.8211 17.6778 25.6481V38.2754C17.6778 38.4237 17.6557 38.5686 17.6141 38.7072C17.4037 38.7269 17.1921 38.7641 16.9811 38.821C16.3406 38.994 15.7714 39.3218 15.3133 39.7725Z" fill="url(#paint19_linear_1_466)"/>
<path d="M38.6883 63.9618L38.4205 59.0829C38.3911 58.5449 38.2959 58.0142 38.1384 57.5072L36.8765 53.4221C36.7093 52.8811 36.1356 52.5781 35.5941 52.745C35.0531 52.9122 34.7499 53.4863 34.9171 54.0274L36.1795 58.1142C36.2877 58.4618 36.3526 58.8253 36.3728 59.195L36.6476 64.2003C36.6522 64.2838 36.6671 64.3666 36.6917 64.4466L38.1833 69.2769C38.3192 69.7173 38.7248 70 39.1626 70C39.2628 70 39.3648 69.9852 39.4656 69.9541C40.0067 69.787 40.3099 69.2129 40.1427 68.6718L38.6883 63.9618Z" fill="url(#paint20_linear_1_466)"/>
<defs>
<linearGradient id="paint0_linear_1_466" x1="0.00012207" y1="0" x2="23.6212" y2="7.55041" gradientUnits="userSpaceOnUse">
<stop stop-color="#D81F5A"/>
<stop offset="1" stop-color="#8438BF"/>
</linearGradient>
<linearGradient id="paint1_linear_1_466" x1="6.49365" y1="5.19202" x2="56.9977" y2="30.139" gradientUnits="userSpaceOnUse">
<stop stop-color="#D81F5A"/>
<stop offset="1" stop-color="#8438BF"/>
</linearGradient>
<linearGradient id="paint2_linear_1_466" x1="6.49365" y1="5.19202" x2="56.9977" y2="30.139" gradientUnits="userSpaceOnUse">
<stop stop-color="#D81F5A"/>
<stop offset="1" stop-color="#8438BF"/>
</linearGradient>
<linearGradient id="paint3_linear_1_466" x1="6.49365" y1="5.19202" x2="56.9977" y2="30.139" gradientUnits="userSpaceOnUse">
<stop stop-color="#D81F5A"/>
<stop offset="1" stop-color="#8438BF"/>
</linearGradient>
<linearGradient id="paint4_linear_1_466" x1="6.49365" y1="5.19202" x2="56.9977" y2="30.139" gradientUnits="userSpaceOnUse">
<stop stop-color="#D81F5A"/>
<stop offset="1" stop-color="#8438BF"/>
</linearGradient>
<linearGradient id="paint5_linear_1_466" x1="22.0973" y1="4.41943" x2="26.0228" y2="10.2373" gradientUnits="userSpaceOnUse">
<stop stop-color="#D81F5A"/>
<stop offset="1" stop-color="#8438BF"/>
</linearGradient>
<linearGradient id="paint6_linear_1_466" x1="22.0973" y1="8.83887" x2="26.3252" y2="13.2847" gradientUnits="userSpaceOnUse">
<stop stop-color="#D81F5A"/>
<stop offset="1" stop-color="#8438BF"/>
</linearGradient>
<linearGradient id="paint7_linear_1_466" x1="22.0973" y1="13.2583" x2="26.3252" y2="17.7042" gradientUnits="userSpaceOnUse">
<stop stop-color="#D81F5A"/>
<stop offset="1" stop-color="#8438BF"/>
</linearGradient>
<linearGradient id="paint8_linear_1_466" x1="22.0973" y1="26.5165" x2="26.0228" y2="32.3344" gradientUnits="userSpaceOnUse">
<stop stop-color="#D81F5A"/>
<stop offset="1" stop-color="#8438BF"/>
</linearGradient>
<linearGradient id="paint9_linear_1_466" x1="22.0973" y1="30.936" x2="26.3252" y2="35.3819" gradientUnits="userSpaceOnUse">
<stop stop-color="#D81F5A"/>
<stop offset="1" stop-color="#8438BF"/>
</linearGradient>
<linearGradient id="paint10_linear_1_466" x1="22.0973" y1="35.3555" x2="26.3252" y2="39.8014" gradientUnits="userSpaceOnUse">
<stop stop-color="#D81F5A"/>
<stop offset="1" stop-color="#8438BF"/>
</linearGradient>
<linearGradient id="paint11_linear_1_466" x1="38.394" y1="0" x2="62.0153" y2="7.55046" gradientUnits="userSpaceOnUse">
<stop stop-color="#D81F5A"/>
<stop offset="1" stop-color="#8438BF"/>
</linearGradient>
<linearGradient id="paint12_linear_1_466" x1="38.3947" y1="22.0977" x2="62.0157" y2="29.648" gradientUnits="userSpaceOnUse">
<stop stop-color="#D81F5A"/>
<stop offset="1" stop-color="#8438BF"/>
</linearGradient>
<linearGradient id="paint13_linear_1_466" x1="60.4911" y1="4.41943" x2="64.4166" y2="10.2373" gradientUnits="userSpaceOnUse">
<stop stop-color="#D81F5A"/>
<stop offset="1" stop-color="#8438BF"/>
</linearGradient>
<linearGradient id="paint14_linear_1_466" x1="60.4911" y1="8.83887" x2="64.719" y2="13.2847" gradientUnits="userSpaceOnUse">
<stop stop-color="#D81F5A"/>
<stop offset="1" stop-color="#8438BF"/>
</linearGradient>
<linearGradient id="paint15_linear_1_466" x1="60.4911" y1="13.2583" x2="64.719" y2="17.7041" gradientUnits="userSpaceOnUse">
<stop stop-color="#D81F5A"/>
<stop offset="1" stop-color="#8438BF"/>
</linearGradient>
<linearGradient id="paint16_linear_1_466" x1="60.4911" y1="26.5165" x2="64.4166" y2="32.3344" gradientUnits="userSpaceOnUse">
<stop stop-color="#D81F5A"/>
<stop offset="1" stop-color="#8438BF"/>
</linearGradient>
<linearGradient id="paint17_linear_1_466" x1="60.4911" y1="30.936" x2="64.719" y2="35.3819" gradientUnits="userSpaceOnUse">
<stop stop-color="#D81F5A"/>
<stop offset="1" stop-color="#8438BF"/>
</linearGradient>
<linearGradient id="paint18_linear_1_466" x1="60.4911" y1="35.3555" x2="64.719" y2="39.8014" gradientUnits="userSpaceOnUse">
<stop stop-color="#D81F5A"/>
<stop offset="1" stop-color="#8438BF"/>
</linearGradient>
<linearGradient id="paint19_linear_1_466" x1="0" y1="22.0974" x2="44.3696" y2="32.611" gradientUnits="userSpaceOnUse">
<stop stop-color="#D81F5A"/>
<stop offset="1" stop-color="#8438BF"/>
</linearGradient>
<linearGradient id="paint20_linear_1_466" x1="34.8711" y1="52.6992" x2="41.8213" y2="53.382" gradientUnits="userSpaceOnUse">
<stop stop-color="#D81F5A"/>
<stop offset="1" stop-color="#8438BF"/>
</linearGradient>
</defs>
</svg>
