<svg width="78" height="70" viewBox="0 0 78 70" fill="none" xmlns="http://www.w3.org/2000/svg">
<path d="M2.21314 39.8057L4.01886 38.0007C4.75377 46.5259 8.58574 54.4866 14.7907 60.3787C20.9956 66.2708 29.1438 69.6861 37.6955 69.9794C46.2473 70.2727 54.6103 67.4235 61.2043 61.9703C67.7983 56.5172 72.1666 48.8376 73.4838 40.3829C73.5363 40.0431 73.4516 39.6963 73.2484 39.4189C73.0453 39.1416 72.7402 38.9562 72.4004 38.9038C72.0606 38.8513 71.7139 38.936 71.4365 39.1391C71.1591 39.3423 70.9738 39.6473 70.9213 39.9871C69.7092 47.7723 65.7029 54.8494 59.6515 59.8951C53.6002 64.9408 45.9182 67.6096 38.042 67.4024C30.1657 67.1952 22.6346 64.1263 16.8569 58.7695C11.0792 53.4127 7.45044 46.1348 6.64925 38.2966L8.15809 39.8057C8.40122 40.0488 8.73097 40.1854 9.0748 40.1854C9.41864 40.1854 9.74839 40.0488 9.99152 39.8057C10.2346 39.5625 10.3712 39.2328 10.3712 38.8889C10.3712 38.5451 10.2346 38.2154 9.99152 37.9722L6.10233 34.083C5.98195 33.9626 5.83903 33.8672 5.68174 33.802C5.52445 33.7368 5.35587 33.7033 5.18562 33.7033C5.01537 33.7033 4.84678 33.7368 4.68949 33.802C4.5322 33.8672 4.38928 33.9626 4.2689 34.083L0.379715 37.9722C0.259331 38.0926 0.163837 38.2355 0.0986849 38.3928C0.0335333 38.5501 0 38.7187 0 38.8889C0 39.0592 0.0335333 39.2278 0.0986849 39.3851C0.163837 39.5424 0.259331 39.6853 0.379715 39.8057C0.5001 39.926 0.643017 40.0215 0.800307 40.0867C0.957597 40.1518 1.12618 40.1854 1.29643 40.1854C1.46668 40.1854 1.63526 40.1518 1.79255 40.0867C1.94984 40.0215 2.09276 39.926 2.21314 39.8057Z" fill="url(#paint0_linear_1_503)"/>
<path d="M75.5707 30.1939L73.7655 31.9991C73.0305 23.474 69.1986 15.5133 62.9937 9.62124C56.7887 3.72918 48.6406 0.313842 40.0889 0.0205812C31.5372 -0.272679 23.1743 2.57645 16.5803 8.0296C9.98633 13.4828 5.61803 21.1622 4.30084 29.617C4.24836 29.9568 4.33302 30.3035 4.5362 30.5809C4.73937 30.8583 5.04441 31.0436 5.38422 31.0961C5.72403 31.1486 6.07076 31.0639 6.34815 30.8607C6.62553 30.6575 6.81085 30.3525 6.86333 30.0127C8.07642 22.2282 12.0832 15.1519 18.1346 10.107C24.186 5.0621 31.8676 2.39387 39.7434 2.6012C47.6191 2.80852 55.1498 5.87721 60.9274 11.2335C66.7049 16.5898 70.3339 23.8671 71.1357 31.7046L69.6257 30.1945C69.5054 30.0741 69.3624 29.9786 69.2051 29.9135C69.0479 29.8483 68.8793 29.8148 68.709 29.8148C68.5388 29.8148 68.3702 29.8483 68.2129 29.9135C68.0556 29.9786 67.9127 30.0741 67.7923 30.1945C67.6719 30.3149 67.5764 30.4578 67.5113 30.6151C67.4461 30.7724 67.4126 30.941 67.4126 31.1112C67.4126 31.2815 67.4461 31.4501 67.5113 31.6073C67.5764 31.7646 67.6719 31.9076 67.7923 32.0279L71.6815 35.9171C71.8019 36.0375 71.9448 36.133 72.1021 36.1982C72.2594 36.2633 72.428 36.2969 72.5982 36.2969C72.7685 36.2969 72.937 36.2633 73.0943 36.1982C73.2516 36.133 73.3945 36.0375 73.5149 35.9171L77.4041 32.0279C77.6472 31.7848 77.7838 31.4551 77.7838 31.1112C77.7838 30.7674 77.6472 30.4376 77.4041 30.1945C77.161 29.9514 76.8312 29.8148 76.4874 29.8148C76.1436 29.8148 75.8138 29.9514 75.5707 30.1945V30.1939Z" fill="url(#paint1_linear_1_503)"/>
<path d="M46.202 48.961L46.204 48.9597C46.204 48.9597 54.023 42.4419 54.04 42.4249C54.1691 42.304 54.2719 42.1579 54.3422 41.9957C54.4125 41.8335 54.4487 41.6585 54.4487 41.4817C54.4487 41.4817 54.4179 21.7422 54.3931 21.6602C54.3125 21.3939 54.1483 21.1606 53.9249 20.9947C53.7014 20.8289 53.4306 20.7394 53.1523 20.7394H32.41C32.154 20.7393 31.9037 20.8151 31.6908 20.9572L23.9124 26.1428C23.7551 26.2483 23.6229 26.3871 23.5251 26.5493C23.4274 26.7116 23.3665 26.8933 23.3467 27.0817C23.3431 27.1024 23.3409 27.1264 23.3391 27.1514C23.3391 27.1676 23.3367 27.1838 23.3365 27.2C23.3365 27.2079 23.3352 27.2136 23.3352 27.222V47.9637C23.3352 48.3075 23.4718 48.6373 23.7149 48.8804C23.958 49.1235 24.2878 49.2601 24.6316 49.2601H45.3739C45.6765 49.2605 45.9696 49.1546 46.202 48.961ZM51.8559 40.8747L46.6703 45.1959V27.9151L51.8559 24.4581V40.8747ZM44.0775 46.6673H25.928V28.5178H31.1136V36.2962C31.1136 36.64 31.2502 36.9697 31.4933 37.2129C31.7364 37.456 32.0662 37.5926 32.41 37.5926H37.5956C37.9394 37.5926 38.2691 37.456 38.5123 37.2129C38.7554 36.9697 38.892 36.64 38.892 36.2962V28.5178H44.0775V46.6673ZM33.7064 34.9998V28.5178H36.2992V34.9998H33.7064ZM28.9133 25.925L32.8025 23.3322H48.8706L44.9815 25.925H28.9133Z" fill="url(#paint2_linear_1_503)"/>
<path d="M33.7063 41.4818H31.1135C30.7697 41.4818 30.44 41.6183 30.1968 41.8615C29.9537 42.1046 29.8171 42.4343 29.8171 42.7781C29.8171 43.122 29.9537 43.4517 30.1968 43.6948C30.44 43.938 30.7697 44.0745 31.1135 44.0745H33.7063C34.0502 44.0745 34.3799 43.938 34.623 43.6948C34.8661 43.4517 35.0027 43.122 35.0027 42.7781C35.0027 42.4343 34.8661 42.1046 34.623 41.8615C34.3799 41.6183 34.0502 41.4818 33.7063 41.4818Z" fill="url(#paint3_linear_1_503)"/>
<path d="M37.5955 42.7781C37.5955 43.122 37.732 43.4517 37.9752 43.6948C38.2183 43.938 38.548 44.0745 38.8919 44.0745H40.1883C40.5321 44.0745 40.8618 43.938 41.1049 43.6948C41.3481 43.4517 41.4846 43.122 41.4846 42.7781C41.4846 42.4343 41.3481 42.1046 41.1049 41.8615C40.8618 41.6183 40.5321 41.4818 40.1883 41.4818H38.8919C38.548 41.4818 38.2183 41.6183 37.9752 41.8615C37.732 42.1046 37.5955 42.4343 37.5955 42.7781Z" fill="url(#paint4_linear_1_503)"/>
<path d="M38.8919 57.0385C39.6078 57.0385 40.1883 56.4581 40.1883 55.7421C40.1883 55.0261 39.6078 54.4457 38.8919 54.4457C38.1759 54.4457 37.5955 55.0261 37.5955 55.7421C37.5955 56.4581 38.1759 57.0385 38.8919 57.0385Z" fill="url(#paint5_linear_1_503)"/>
<path d="M33.7063 57.0385C34.4223 57.0385 35.0027 56.4581 35.0027 55.7421C35.0027 55.0261 34.4223 54.4457 33.7063 54.4457C32.9903 54.4457 32.4099 55.0261 32.4099 55.7421C32.4099 56.4581 32.9903 57.0385 33.7063 57.0385Z" fill="url(#paint6_linear_1_503)"/>
<path d="M44.0775 57.0385C44.7935 57.0385 45.3739 56.4581 45.3739 55.7421C45.3739 55.0261 44.7935 54.4457 44.0775 54.4457C43.3615 54.4457 42.7811 55.0261 42.7811 55.7421C42.7811 56.4581 43.3615 57.0385 44.0775 57.0385Z" fill="url(#paint7_linear_1_503)"/>
<defs>
<linearGradient id="paint0_linear_1_503" x1="0" y1="33.7033" x2="68.3551" y2="77.9471" gradientUnits="userSpaceOnUse">
<stop stop-color="#D81F5A"/>
<stop offset="1" stop-color="#8438BF"/>
</linearGradient>
<linearGradient id="paint1_linear_1_503" x1="4.28564" y1="0" x2="72.6406" y2="44.243" gradientUnits="userSpaceOnUse">
<stop stop-color="#D81F5A"/>
<stop offset="1" stop-color="#8438BF"/>
</linearGradient>
<linearGradient id="paint2_linear_1_503" x1="23.3352" y1="20.7394" x2="59.9427" y2="33.5046" gradientUnits="userSpaceOnUse">
<stop stop-color="#D81F5A"/>
<stop offset="1" stop-color="#8438BF"/>
</linearGradient>
<linearGradient id="paint3_linear_1_503" x1="29.8171" y1="41.4818" x2="34.6749" y2="44.5873" gradientUnits="userSpaceOnUse">
<stop stop-color="#D81F5A"/>
<stop offset="1" stop-color="#8438BF"/>
</linearGradient>
<linearGradient id="paint4_linear_1_503" x1="37.5955" y1="41.4818" x2="41.7685" y2="43.4826" gradientUnits="userSpaceOnUse">
<stop stop-color="#D81F5A"/>
<stop offset="1" stop-color="#8438BF"/>
</linearGradient>
<linearGradient id="paint5_linear_1_503" x1="37.5955" y1="54.4457" x2="40.6998" y2="55.438" gradientUnits="userSpaceOnUse">
<stop stop-color="#D81F5A"/>
<stop offset="1" stop-color="#8438BF"/>
</linearGradient>
<linearGradient id="paint6_linear_1_503" x1="32.4099" y1="54.4457" x2="35.5143" y2="55.438" gradientUnits="userSpaceOnUse">
<stop stop-color="#D81F5A"/>
<stop offset="1" stop-color="#8438BF"/>
</linearGradient>
<linearGradient id="paint7_linear_1_503" x1="42.7811" y1="54.4457" x2="45.8855" y2="55.438" gradientUnits="userSpaceOnUse">
<stop stop-color="#D81F5A"/>
<stop offset="1" stop-color="#8438BF"/>
</linearGradient>
</defs>
</svg>
