<svg width="19" height="22" viewBox="0 0 19 22" fill="none" xmlns="http://www.w3.org/2000/svg">
<path d="M18.4622 5.66458C18.4509 5.07062 18.4401 4.5095 18.4401 3.96667C18.4401 3.54139 18.0955 3.19661 17.6701 3.19661C14.3768 3.19661 11.8694 2.25016 9.7794 0.218041C9.48041 -0.0727316 9.00462 -0.072629 8.70574 0.218041C6.61591 2.25016 4.10893 3.19661 0.815865 3.19661C0.39059 3.19661 0.0458106 3.54139 0.0458106 3.96667C0.0458106 4.5096 0.0351325 5.07092 0.0237357 5.66499C-0.0818131 11.1925 -0.226377 18.7628 8.99035 21.9575C9.07208 21.9858 9.1573 22 9.24252 22C9.32774 22 9.41306 21.9858 9.49468 21.9575C18.7121 18.7627 18.5678 11.1922 18.4622 5.66458ZM9.24262 20.4128C1.33806 17.5413 1.45758 11.251 1.56364 5.69436C1.57 5.36087 1.57617 5.03766 1.58048 4.72081C4.6648 4.59061 7.13123 3.65597 9.24262 1.81667C11.3542 3.65597 13.8211 4.59072 16.9056 4.72081C16.9099 5.03755 16.9161 5.36057 16.9224 5.69385C17.0284 11.2507 17.1478 17.5412 9.24262 20.4128Z" fill="url(#paint0_linear_1_280)"/>
<path d="M11.8944 8.32498L8.17767 12.0415L6.59167 10.4555C6.29094 10.1548 5.80334 10.1548 5.50271 10.4555C5.20198 10.7563 5.20198 11.2438 5.50271 11.5445L7.63319 13.675C7.78351 13.8253 7.98064 13.9005 8.17767 13.9005C8.3747 13.9005 8.57184 13.8253 8.72215 13.675L12.9832 9.41405C13.2841 9.11332 13.2841 8.62572 12.9833 8.32509C12.6827 8.02436 12.1951 8.02425 11.8944 8.32498Z" fill="url(#paint1_linear_1_280)"/>
<defs>
<linearGradient id="paint0_linear_1_280" x1="0" y1="0" x2="22.7535" y2="6.1113" gradientUnits="userSpaceOnUse">
<stop stop-color="#D81F5A"/>
<stop offset="1" stop-color="#8438BF"/>
</linearGradient>
<linearGradient id="paint1_linear_1_280" x1="5.27716" y1="8.09949" x2="14.0655" y2="11.9404" gradientUnits="userSpaceOnUse">
<stop stop-color="#D81F5A"/>
<stop offset="1" stop-color="#8438BF"/>
</linearGradient>
</defs>
</svg>
